<svg width="70" height="29" viewBox="0 0 70 29" xmlns="http://www.w3.org/2000/svg"><g fill="none" fill-rule="evenodd"><path d="M3.202 25H.317l5.135-9.478c-1.5-.719-2.573-1.675-3.217-2.87-.645-1.193-.967-2.614-.967-4.263 0-1.268.18-2.388.539-3.36.36-.972.845-1.791 1.458-2.457a6.023 6.023 0 0 1 2.14-1.506A6.665 6.665 0 0 1 7.988.56h4.058V25H9.542v-9.066H7.893L3.202 25zm6.34-22.349H7.893a3.6 3.6 0 0 0-1.474.317c-.475.212-.898.55-1.268 1.015-.37.465-.665 1.062-.887 1.79-.222.73-.333 1.602-.333 2.616 0 .993.121 1.834.364 2.52.243.687.566 1.252.967 1.696.402.444.856.766 1.363.967.508.2 1.036.301 1.585.301h1.332V2.651z" fill="#F00"/><path d="M37.12 28.17h-2.25v-3.202h-7.006v3.202h-2.25v-5.262h.982a13.96 13.96 0 0 0 1.19-3.075c.284-1.099.501-2.209.649-3.329.148-1.12.238-2.23.27-3.328.031-1.099.047-2.145.047-3.138V8.643h7.1v14.265h1.269v5.262zm-3.772-17.498h-2.377v.317c0 .993-.032 2.044-.095 3.154a32.825 32.825 0 0 1-.349 3.265 25 25 0 0 1-.666 3.027c-.274.951-.623 1.775-1.046 2.473h4.533V10.672zM48.089 24.24a10.83 10.83 0 0 1-1.76.776c-.644.222-1.368.333-2.17.333-1.65 0-2.97-.687-3.963-2.06-.994-1.374-1.49-3.308-1.49-5.802 0-1.205.1-2.362.3-3.471.202-1.11.508-2.092.92-2.948.412-.856.935-1.543 1.57-2.06.633-.518 1.394-.777 2.282-.777 1.31 0 2.367.655 3.17 1.965.803 1.31 1.204 3.244 1.204 5.801v1.395h-6.815c0 1.775.3 3.16.903 4.153.603.993 1.548 1.49 2.837 1.49.486 0 .988-.07 1.506-.206a9.25 9.25 0 0 0 1.22-.397l.286 1.807zm-4.406-13.98c-.36 0-.677.126-.951.38-.275.254-.508.607-.698 1.062-.19.454-.338.988-.444 1.6a17.94 17.94 0 0 0-.221 1.998h4.184v-.349c0-.106-.005-.222-.016-.349a4.98 4.98 0 0 1-.016-.412c-.084-1.247-.285-2.213-.602-2.9-.317-.687-.73-1.03-1.236-1.03zM24.155 8.643v16.325h-2.504V17.17h-3.74v7.798h-2.536V8.643h2.536v6.435h3.74V8.643zm36.043 16.325h-2.821l-3.9-8.052-.284-.348v8.4h-2.536V8.643h2.536v7.418l.285-.317 3.455-7.101h2.695l-3.994 7.354zm3.265-8.115c0 1.923.296 3.434.888 4.533.592 1.1 1.5 1.649 2.726 1.649.465 0 .94-.07 1.427-.206a9.93 9.93 0 0 0 1.173-.397l.253 1.807a9.347 9.347 0 0 1-1.632.777c-.603.222-1.284.333-2.045.333-1.627 0-2.943-.677-3.947-2.03-1.003-1.352-1.505-3.296-1.505-5.832 0-1.395.142-2.663.428-3.804.285-1.141.67-2.113 1.157-2.916.486-.803 1.067-1.427 1.743-1.87a3.912 3.912 0 0 1 2.187-.666c.698 0 1.327.095 1.887.285a5.78 5.78 0 0 1 1.505.76l-1.3 2.188a4.515 4.515 0 0 0-.998-.856c-.37-.232-.745-.349-1.125-.349-.444 0-.846.19-1.205.571-.36.38-.655.877-.887 1.49a10.745 10.745 0 0 0-.54 2.108c-.126.793-.19 1.6-.19 2.425z" fill="#000"/></g></svg>
