<svg width="115" height="28" viewBox="0 0 115 28" xmlns="http://www.w3.org/2000/svg"><path d="M6.34.683c.845 0 1.553.159 2.123.476.57.317 1.025.665 1.363 1.046l-.412 1.49a5.424 5.424 0 0 0-1.3-1.252c-.507-.35-1.098-.524-1.775-.524-1.521 0-2.694.872-3.518 2.616-.825 1.743-1.237 4.2-1.237 7.37 0 3.191.402 5.685 1.205 7.481.803 1.797 1.986 2.695 3.55 2.695.846 0 1.543-.17 2.093-.508.549-.338.972-.655 1.268-.95l.443 1.14a8.492 8.492 0 0 1-.475.429c-.212.18-.481.354-.809.523a5.777 5.777 0 0 1-1.14.428 5.43 5.43 0 0 1-1.411.174c-.994 0-1.881-.259-2.663-.777-.782-.517-1.437-1.257-1.966-2.219-.528-.961-.93-2.145-1.204-3.55C.2 15.366.063 13.775.063 12c0-1.776.142-3.366.428-4.772.285-1.405.697-2.589 1.236-3.55.539-.962 1.194-1.701 1.965-2.22C4.464.943 5.346.684 6.34.684zm12.87 7.481h-5.326V23h-1.427V7.023h8.147V23H19.21V8.164zm9.32 14.012c1.035 0 1.864-.613 2.488-1.839.623-1.226.935-3.117.935-5.674 0-2.113-.27-3.762-.808-4.945-.54-1.184-1.284-1.776-2.235-1.776-.36 0-.703.09-1.03.27-.328.18-.635.417-.92.713a5.62 5.62 0 0 0-.776 1.03 8.724 8.724 0 0 0-.603 1.22v9.067c.317.655.708 1.141 1.173 1.458.465.317 1.057.476 1.775.476zm-.127 1.11a3.422 3.422 0 0 1-1.633-.397 3.47 3.47 0 0 1-1.189-.998v6.054h-1.426V7.023h1.236l.127 2.631a7.45 7.45 0 0 1 1.426-2.044c.592-.603 1.332-.904 2.22-.904.654 0 1.246.19 1.775.57.528.381.972.915 1.33 1.602.36.686.635 1.51.825 2.472.19.962.285 2.024.285 3.186 0 2.938-.454 5.13-1.363 6.578-.908 1.447-2.113 2.171-3.613 2.171zm11-1.11c.74 0 1.368-.307 1.886-.92.517-.612.924-1.352 1.22-2.219v-4.533h-1.712c-1.331 0-2.324.323-2.98.967-.655.645-.982 1.675-.982 3.091 0 1.141.232 2.029.697 2.663.465.634 1.088.95 1.87.95zm3.55.824c-.064-.211-.132-.48-.206-.808a9.666 9.666 0 0 1-.175-1.348c-.38.761-.855 1.363-1.426 1.807-.57.444-1.258.666-2.06.666-1.078 0-1.955-.407-2.632-1.22-.676-.814-1.014-1.95-1.014-3.408 0-1.712.454-3.006 1.363-3.883.909-.877 2.23-1.316 3.963-1.316h1.743v-1.997c0-1.247-.222-2.15-.666-2.71-.443-.56-1.11-.84-1.997-.84-.676 0-1.31.153-1.902.46a3.967 3.967 0 0 0-1.458 1.283l-.412-1.363c.317-.423.798-.798 1.442-1.125.645-.328 1.421-.492 2.33-.492 1.31 0 2.314.375 3.012 1.126.697.75 1.046 1.917 1.046 3.502v8.718c0 .55.032 1.104.095 1.664.063.56.148.988.254 1.284h-1.3zm4.501 0V7.023h3.297c1.416 0 2.494.328 3.233.983.74.655 1.11 1.617 1.11 2.885 0 .803-.18 1.521-.539 2.155-.36.634-.93 1.13-1.712 1.49 1.036.296 1.791.771 2.267 1.427.475.655.713 1.468.713 2.44 0 1.586-.454 2.748-1.363 3.488-.909.74-2.124 1.109-3.646 1.109h-3.36zM48.85 8.133v6.023h1.902c.888 0 1.606-.249 2.156-.745.55-.497.824-1.316.824-2.457 0-1.036-.264-1.765-.793-2.187-.528-.423-1.257-.634-2.187-.634H48.85zm0 7.069v6.72h2.029c1.035 0 1.88-.259 2.536-.776.655-.518.983-1.4.983-2.647 0-1.184-.302-2.03-.904-2.536-.602-.508-1.485-.761-2.647-.761H48.85zm13.694 8.115a3.741 3.741 0 0 1-1.933-.523c-.592-.349-1.105-.861-1.538-1.538-.433-.676-.776-1.526-1.03-2.551-.254-1.025-.38-2.225-.38-3.598 0-1.332.126-2.52.38-3.567.254-1.046.597-1.923 1.03-2.63.433-.709.946-1.253 1.538-1.633a3.506 3.506 0 0 1 1.933-.57c.698 0 1.342.168 1.934.506.592.339 1.104.851 1.538 1.538.433.687.776 1.543 1.03 2.568.253 1.025.38 2.224.38 3.597 0 1.332-.127 2.515-.38 3.55-.254 1.036-.597 1.913-1.03 2.632-.434.719-.946 1.268-1.538 1.648a3.51 3.51 0 0 1-1.934.571zm0-1.141c.951 0 1.765-.587 2.441-1.76.677-1.172 1.015-2.974 1.015-5.404 0-1.268-.09-2.351-.27-3.25-.18-.898-.428-1.632-.745-2.203-.317-.57-.687-.993-1.11-1.268a2.405 2.405 0 0 0-1.33-.412c-.952 0-1.765.576-2.441 1.728-.677 1.152-1.015 2.953-1.015 5.405 0 1.246.09 2.324.27 3.233.18.909.428 1.654.745 2.235s.681 1.009 1.093 1.284a2.38 2.38 0 0 0 1.347.412zM76.396 23v-7.291c-.211.19-.465.36-.76.507-.254.127-.56.243-.92.349a4.51 4.51 0 0 1-1.268.158c-1.12 0-2.007-.37-2.663-1.11-.655-.739-.982-1.87-.982-3.391V7.023h1.426v5.23c0 1.163.222 1.998.666 2.505.444.507 1.046.76 1.807.76.422 0 .803-.057 1.141-.174.338-.116.623-.258.856-.428a4.97 4.97 0 0 0 .697-.634V7.023h1.427V23h-1.427zm11.92-7.735H82.8V23h-1.427V7.023H82.8v7.101h5.516v-7.1h1.426V23h-1.426v-7.735zm12.426-8.242h1.236V23h-1.363V11.683a16.449 16.449 0 0 1 .127-2.124h-.095a9.67 9.67 0 0 1-.365 1.03c-.137.328-.29.66-.46.999L94.53 23h-1.205V7.023h1.332V18.34a16.449 16.449 0 0 1-.127 2.124h.095c.105-.36.227-.703.364-1.03.138-.328.29-.66.46-.999l5.294-11.412zM106.987 23h-1.427V7.023h1.427v7.513l5.357-7.513h1.395l-5.262 7.418L114.119 23h-1.585l-5.547-8.274V23z" fill-rule="evenodd"/></svg>
